<?xml version="1.0" encoding="UTF-8"?>
<svg version="1.1" viewBox="0 0 2048 1755" width="168" height="144" xmlns="http://www.w3.org/2000/svg">
<path transform="translate(0)" d="m0 0h2048v1755h-2048z" fill="#FDFDFD"/>
<path transform="translate(496,377)" d="m0 0h19l5 3 4 5 5 13 1 1 10 1 6 4 9 10 6 9 2 9h-2l4 5 5 1 4-10 6-2 3 3 5 6 13 2 16 1 6 7v2l10 2 2-9 6-3h7l5 2 8 9 3 1h188l2 23 2 59 1 24 3 28 1 2h3l-4-17v-5l2 1 8 29 3 9 4 16 4 10 5 15 2 10 4 6v6l3 6 4 1h2l1-4 4 6 4 16 6 17 3 9 1 9 4 8 2 10 3 4 8 1 3 5 8 26 6 22 6 17 3 8 3 12 3 5 8 6 4 5 5 20 4 7 5 14 1 12 6 9 1 9 4 5-1 5v8l4 8 2 1v-13l-3-10h5l2 5 3 16 5 12 2 6 2 12 4 8 2 11 3 1 2 7v7l4 11 4 6 3 1 2-4 1-7 3-1 7 1h3l2-4v-10h-4l-1-3 5-4h2l2-9 5-1 1-4h3v-3l7-2 1-6-2-4-8 4-2-5 5-4 6-3h3l3-9 2-5 3-5v-8l9-26 2-4 3-17 4-2v-6l1-1h7l3-4 1-3v-13l5-7 8-24 1-9 4-9 5-14 2-5-2-5 4-5 6-1 3 1 3-9 3-7 4-8-1-9 5-8 2-10 3-5 2-16 4-7 2-4h6l1 3 6-17 3-12 6-19 3-12 2-10 5-12 2-1-1 5h2v-18-4l8-1-3 3-1 4v14l1 5 2-1 3-8 2-17 6-16 2-9 2-14 4-23 2-26v-20l-2-13-4-6-5-5-3-8v-10l7-1 169-1 7-1 8-9 5-12 3-12 2-2h36l8 1 1 1v7l-6 4-12 2h-5v25l-1 87v419l-1 84v174l1 18 2 16 1 5 4-2 7-8 7-4h14l1 4-3 6-6 3-13 4-1 5 1 11-4 4-4 1-27 1-37-1-13-2-3-4-4-13v-2l-12-3-6-3-2-3-1-700h-34l-6-1 4 13 1 6v8l-2 7-5 3-8 6-1 3-1 12-3 6-5 5h-5l3-4h2l2-6-1-11-1-6h-3l-2 5-2 4v17l-3 2-2 10-2 5-2 3h-2l2 7v6l-4 6-3 11-4 7-1 15-4 8-5 4-2-2-1-4h-2l-1 8-3 1-2 6-2 13-7 21-6 22-4 12-5 14h-1l1-15-5 1-3 4v10h-2l-2 11-2 4v6l-3 5-3 2-1 8 3 1-7 15-4 12-3 15-10 16-1-3 4-13 3-12-1-7-4 4-2 11-3 17v2l-4 4-1 3v9l-5 15-6 16-5 16-5 12-2 8h-1v-11l1-8-2-1-3 13-3 9-8 26-4 8-3 12-4 9-5 18-2 10-5 5h-1v-5l-3 3-3 4h-2l-2 10-2 5h-3l1 6 3 1-2 5-8 16-4 9-1 7-1 10-7 11-3 1 1-6h-2l-1 6-2 4-2 1-4 18-4 8-10 35-7 20-3 12h-1l1-8 3-15-1-3-6 5-1 5v10l-6 16-7 4-5 1-5 2-9-3-4 2-9-1-7-3-3-5-2-7-1-23-4-7-4 1-6 4-3-4-2-6-3-19-8-16-4-10-2-13-2-3-2-10-1-1h-11l-1-2-1-19-4-7-3-11-3-4-2-14-3-5-4-11-2-8v-10l-3-12-5 3-5 5-2-1-4-16-3-7-1-12-5-8-3-7-3-9-1-11-3-10-3-4v-2h-2l-2 6-4 1-3-5-3-12-2-12-4-8-2-7-3-9-2-11-4-10-3-9v-3l-8 7h-3l-2-7-1-16-6-17-4-6-2-13-2-4-2-9-4-5v-15l-3-12-5-1-2 7-5 1-8-24-2-13-6-14-3-11-3-18-2-3-4 1-1 1h-8l-2-6-2-21-4-8-5-11-2-4-2-14-3-8-3-9-1-4-7 3h-4l-2-4v-12l-6-15-3-7-3-5v-9l-4-10-3-5-3-2-17-2-3-13-3-12-3-4h-2l-1 4-1 31-1 423v263l-2 9-3 5-7 4-8 2-4 17-4 2-28 1h-82l-13-1-5-2-6-8-8-6-11-7-12-4-3-5 1-3 9-1 10 11 3 1 11 1 4 5 1 5 7-2 5-7 2-1 36-3h8l1-54-1-697-1-10-9-11-6-16-4-5-9-21-6-12-5-25-30-1-6-3 4-2v-9l3-6 3-3z" fill="#8F0523"/>
<path transform="translate(992,487)" d="m0 0h76l3 1v11l-4 21-5 9v27l-3 7-1 20-3 1h-14l-1-6-1-14-1-2-3-1h-34l-1 15v44h35l29-1 5-2 9 1-2 6-4 6-2 2-6 1-26 1h-53l-14-1-7-2-2-7 6-2 18-1v-110l-21-2-3-6v-13l7-2z" fill="#191518"/>
<path transform="translate(1537,694)" d="m0 0h26l7 2 3 4 8 16 7 13 4 5 9 6 7 9 6 14 7 9 12 13 4 4h4l4-9 1-13 1-28v-30l-1-2-21-3-5-3v-4l6-2h18l34 1 4 2-1 4-5 3-15 2h-5l-1 56v30l2 36v9h-5l-4-5-7-14-9-6-8-5-10-15-2-7-7-10-8-8-6-4-4-2-9-17-8-14 1 3v10l-1 4v64l-1 3 9 2 5 4 2 4v7l-4 5-6 2-9 1h-19l-8-3-2-3v-11l2-4 8-5 1-2 1-26v-78l-6-2-7-5-2-5z" fill="#635E63"/>
<path transform="translate(1209,1098)" d="m0 0 27 1 3 6 6 29 6 24 5 24 2 5 1 7 1 1v7l-1 4h-3v5l4 3h5v-2l8 1 1-4 4 1 1 4-2 1-1-1v1l9 2 4 5 2 5v12l-7 2-24 1h-17l1-23 3-6 5-2-3-2-3-1-25-1h-38l-3 1 2 9 8 7 3 1v2l6-4 5 2 1 11-1 1-23 3-2 1-17-1h-10l-6-2v-13l4-5 4-1h17l2-5 2-4 2-9v-9l2-8 3-5h2l-1-3v-8l4-27 1-4h4l2-2 3 3 1 3 5 2v36h40l1-5-4-6h-4l-2-10v-6h2l-1-3-3-7-3-1 2 9 2 18-1 1h-8l-2-8-3-14-5-12-3-4-3-9 1-1v-5h-2l-1-17z" fill="#120E11"/>
<path transform="translate(331,694)" d="m0 0h27l10 2 4 5 9 29 6 12 6 2 3-1 4 15 9 20 8 12v3h-4l3 8 11 3 9-8 1 2-3 10-5 5-2 1-2 5-4 5 1 7 4-1 3-7 3 1 3 4v6l-3 3-6-3h-6l-1 5h-12l-1-2-2-13-6-16-7-12-3-7-3 4-1-2v-6l-3-5-1 5-2-4-5-17-6-21-4-10-1-1 2 83 9 4 3 6v9l-1 3-6 2-27 1-10-1-3-3v-11l3-6 10-5v-97l-2-8-10-8-2-5z" fill="#645F64"/>
<path transform="translate(752,1096)" d="m0 0 15 1 15 3 16 1 4 4 1 2v21l-2 8-4 5-2 1h-8l-9-5-2-6v-18l-1-2-5-1h-23l-4 1-2 10v9l2 10 3 3 8 2 18 3 2 7-1 9 2 2 12 3 11 1 6 4 7 15v15l-5 19-4 13-6 3-31 4h-10l-20-2-7-2h-7l-5-2-2-9-2-18v-13h2l4 24 3 10 4 4 2 1 11 1v2h2l-3-12-5-8-4-6-1-23 1-2 4 1 3 3 2 12 7 8 6 4 8 2h12l9-2 3-3 1-14v-13l-10-5-8-6-9-3-13-2-8-4-2-2-2-17-2-2-1-7 1-5v-19l3-9 3-5 8-3z" fill="#191518"/>
<path transform="translate(478,695)" d="m0 0h31l2 2-1 5-6 3-12 2h-7l1 109 4 2 18 1 3 4v7l-3 5-6 3-20 2h-34l-4-18 1-4 8-4 5-1-3-10v-19l2-27v-12l-5 3-2 10h-2l-3 10-7 21-5 7-3-1 2-11 5-13 12-45 4-24 1-3 6-2z" fill="#635E63"/>
<path transform="translate(803,1174)" d="m0 0 2 3 6 12v15l-5 19-4 13-6 3-31 4h-10l-20-2-7-2h-7l-5-2-2-9-2-18v-13h2l4 24 3 10 4 4 2 1 11 1v2h2l-3-12-5-8-4-6-1-23 1-2 4 1 3 3 2 12 7 8 6 4 8 2h12l9-2 3-3 1-14v-13l-5-2-1-4h12l5 2h4l1-2h3z" fill="#161215"/>
<path transform="translate(1209,1098)" d="m0 0 27 1 3 6 6 29 6 24 1 10h-2v8l-4-1-1 5-2-1 1-5-4-6h-4l-2-10v-6h2l-1-3-3-7-3-1 2 9 2 18-1 1h-8l-2-8-3-14-5-12-3-4-3-9 1-1v-5h-2l-1-17z" fill="#635E63"/>
<path transform="translate(1016,511)" d="m0 0h42l6 3-1 6-6 12h-1l-2-11-10 1-4 2-1 23-12 1h-26l-1-1v-32l1-2z" fill="#FEFEFE"/>
<path transform="translate(736,1129)" d="m0 0 4 2v6h2l2 5 4 2 24 4 2 7-1 9 2 2 12 3 11 1 5 3-1 7h-3l-1 3-5-1-4-1h-10l-1 2-5-2-8-6-9-3-13-2-6-3-3-4v-6l1-3v-7l-4-4v-11z" fill="#171215"/>
<path transform="translate(1255,1182)" d="m0 0 2 1 2 11 1 1v7l-1 4h-3v5l4 3h5v-2l8 1 1-4 4 1 1 4-2 1-1-1v1l9 2 4 5 2 5v12l-7 2-24 1h-17l1-23 3-6 5-2-3-2-3-1-62-2v-1h59l10 2 2-5 2-1-1-12z" fill="#161215"/>
<path transform="translate(803,1174)" d="m0 0 2 3 6 12v15l-5 19-3 10h-7v-8l-4-1v-2l-7-2-1-3-8 1 3-2 3-3 1-14v-13l-5-2-1-4h12l5 2h4l1-2h3z" fill="#676065"/>
<path transform="translate(1178,1196)" d="m0 0h1l-1 10h5l-1 2h-2l2 9 8 7 3 1v2l6-4 5 2 1 11-1 1-23 3-2 1-17-1h-10l-6-2v-13l4-5 4-1h17l2-5 2-4z" fill="#191518"/>
<path transform="translate(453,819)" d="m0 0h36v2h2l1 2 13 2-2-5 6 1 2 2v7l-3 5-6 3-11 1h-41l-3-11 1-6 4-2z" fill="#130F12"/>
<path transform="translate(340,815)" d="m0 0 4 1 25 1 5 3 2 5v9l-1 3-6 2-27 1-10-1-3-3v-11l3-6z" fill="#161215"/>
<path transform="translate(1556,815)" d="m0 0h11l1 1 10 1 5 4 2 4v7l-4 5-6 2-9 1h-19l-8-3-1-4v-7l4-5h2v-2h2v-2z" fill="#161215"/>
<path transform="translate(331,694)" d="m0 0h27l10 2 4 5v6l-4-2-4-3 6 12v9l-2-1-4-8v-2h-2l-1-2-2 3-3-1v10l4 2-2 1-2-1-1 5-5 1-1-1-4 1-1 3-1-13-3-11-10-8-2-5z" fill="#171216"/>
<path transform="translate(1193,1135)" d="m0 0 4 3 1 3 5 2v36l40 1v1l-7 1h-50l-5 3-2 6h-1l1-7 3-5h2l-1-3v-8l4-27 1-4h4z" fill="#686368"/>
<path transform="translate(461,738)" d="m0 0h9l2 1 1 10 1 56-5 5h-5l-2-6 1-12 1-26v-15l-1-6-3-1z" fill="#FEFEFE"/>
<path transform="translate(1044,521)" d="m0 0h10l3 9 4-8 2 3-1 4-1 21-2-1h-58v-1l38-1v-23z" fill="#666166"/>
<path transform="translate(1537,694)" d="m0 0h26l7 2 3 4 6 12-1 4-4-7h-3l2 12v4l-4-1-3-14-5 2-3 3-3-2v-5h-8l-10-6-3-6z" fill="#181417"/>
<path transform="translate(1626,695)" d="m0 0h18l34 1 4 2-1 4-5 3-15 2h-5v2l-5-1h-3l-9-2-14-2-5-3v-4z" fill="#1D191C"/>
<path transform="translate(728,1188)" d="m0 0 4 1 3 3 2 12 7 8 1 2-5 1-1 7 3 14 1 4 22 2v1h-10l-20-2-7-2h-7l-5-2-2-9-2-18v-13h2l4 24 3 10 4 4 2 1 11 1v2h2l-3-12-5-8-4-6-1-23z" fill="#676267"/>
<path transform="translate(1061,550)" d="m0 0h1v6l-3 7-1 20-3 1h-14l-1-6-1-14-1-2-3-2 5 1 2 2 2-3 13-2 4-5-2-1z" fill="#635E63"/>
<path transform="translate(1178,1196)" d="m0 0h1l-1 10h5l-1 2h-2l2 9 8 7 3 1v2l6-4 5 2 1 11-1 1-17 2h-6l4-2-2-7v-9l-6-1-16 1v-1l10-1 2-5 2-4z" fill="#6A656A"/>
<path transform="translate(737,1099)" d="m0 0 3 1-2 3 2 3-2 2 5 2-2 11v16h-1l-2-7-6 2v13l4 2v9l-1 1v6l2 3-4-2-2-17-2-2-1-7 1-5v-19l3-9 3-5z" fill="#635E63"/>
<path transform="translate(712,1197)" d="m0 0h2l4 24 3 10 4 4 2 1 11 1v2h2l-1-6h2l2 7 22 2v1h-10l-20-2-7-2h-7l-5-2-2-9-2-18z" fill="#645F64"/>
<path transform="translate(1255,1182)" d="m0 0 2 1 2 11 1 1v7l-1 4h-3v5l4 3h5v-2l8 1 1-4 4 1 1 4-2 1-1-1v1l5 1v1l-7 1-16-2-2-1v-2l-7 1-3 3 1-4 5-2-3-2-3-1-62-2v-1h59l10 2 2-5 2-1-1-12z" fill="#645F64"/>
<path transform="translate(999,561)" d="m0 0h1v59h35l29-1 5-2 9 1-2 6-2 2-5-5-29 1h-38l-5-3v-37l1-18z" fill="#645F64"/>
<path transform="translate(931,750)" d="m0 0h5l4 9v9l-2 5-3-1-5-10-1-10z" fill="#FEFEFE"/>
<path transform="translate(1234,1102)" d="m0 0 5 3 2 9v7l-5 1v2l-5-1-2-5 3-2 2-7-1-3z" fill="#1B171A"/>
<path transform="translate(895,675)" d="m0 0h4l5 10v7l-2 4-3-1-3-7-1-5z" fill="#FEFEFE"/>
<path transform="translate(506,696)" d="m0 0 5 1-1 5-6 3h-10l-5-2 4-3 13-2z" fill="#191518"/>
<path transform="translate(1266,672)" d="m0 0h2v18l-2 4-5-2 1-9 3-10z" fill="#FEFEFE"/>
<path transform="translate(1158,786)" d="m0 0h3l3 4v7l-2 8-4-1-2-11z" fill="#FEFEFE"/>
<path transform="translate(474,401)" d="m0 0 2 1-1 7-3 3-7 1-2-2 1-5 4-3z" fill="#8F0523"/>
<path transform="translate(827,855)" d="m0 0 5 1 3 3v7l-2 4-5-3-1-3z" fill="#FEFEFE"/>
<path transform="translate(768,1148)" d="m0 0 5 1 1 6-1 9 2 2 12 3 11 1 5 3-2 1-4-2-20-2-6-4-1-1v-15z" fill="#645F64"/>
<path transform="translate(1268,1186)" d="m0 0 4 1 3 7 2 7v6h-6l1-5z" fill="#645F64"/>
<path transform="translate(718,595)" d="m0 0 5 4 3 6-1 6h-4l-4-8z" fill="#FEFEFE"/>
<path transform="translate(730,1132)" d="m0 0h1l1 13 4 2v9l-1 1v6l2 3-4-2-2-17-2-2-1-7z" fill="#645F64"/>
<path transform="translate(776,1111)" d="m0 0 2 1 1 20 2 5 4-1 2 3 8 2v1h-8l-9-5-2-6z" fill="#645D63"/>
<path transform="translate(788,783)" d="m0 0 3 1 1 9 5 4v2l-6-2-4 1-1-1v-10z" fill="#900523"/>
<path transform="translate(1054,1020)" d="m0 0 8 2v2l-4 2-3 5-7 4-3-1 1-3 4 1 2-4 1-7z" fill="#665A60"/>
<path transform="translate(1119,1034)" d="m0 0 3 1v11l-2 4-4-2-1-6z" fill="#FEFEFE"/>
<path transform="translate(1232,1128)" d="m0 0 5 1 1 6v10l-4-4-2-7z" fill="#120E11"/>
<path transform="translate(1230,601)" d="m0 0h5l-3 3-1 4-1 13-2-1-1-14v-4z" fill="#6A5159"/>
<path transform="translate(1090,601)" d="m0 0 3 1-1 8-4 5-4 1 3-6z" fill="#645F64"/>
<path transform="translate(470,711)" d="m0 0 2 1-2 6-5 5-3 2 1-5 3-6z" fill="#120E11"/>
<path transform="translate(1118,880)" d="m0 0h8l-2 9-4-1-2-3-1-4z" fill="#7B777B"/>
<path transform="translate(510,823)" d="m0 0h1v7l-3 5-6 3h-6v-1l8-1v-5l3-1v-2h3z" fill="#605B60"/>
<path transform="translate(1082,1123)" d="m0 0h2l3 4-4 8-2-1-1-8z" fill="#FEFEFE"/>
<path transform="translate(971,859)" d="m0 0 2 1 3 7v6l-3-1-2-4z" fill="#FEFEFE"/>
<path transform="translate(897,1041)" d="m0 0 3 1v10h-4v-10z" fill="#900523"/>
<path transform="translate(939,1112)" d="m0 0 4 4v5l-3 2-2-2v-8z" fill="#FEFEFE"/>
<path transform="translate(755,675)" d="m0 0 3 2 2 11h-4z" fill="#FEFEFE"/>
<path transform="translate(1225,1101)" d="m0 0 4 1-4 6-4-1 1-5z" fill="#FEFEFE"/>
<path transform="translate(1212,1103)" d="m0 0 5 2 2 4-6 2-1-2z" fill="#120E11"/>
<path transform="translate(1581,747)" d="m0 0 6 2 1 7-5-2-2-3z" fill="#1D191C"/>
<path transform="translate(1053,1027)" d="m0 0 3 3-7 5-4-1 1-3 4 1 2-4z" fill="#645F64"/>
<path transform="translate(968,847)" d="m0 0 5 1 2 5h-4l-3-4z" fill="#FEFEFE"/>
<path transform="translate(859,589)" d="m0 0 4 2 1 6-4-2z" fill="#FEFEFE"/>
</svg>
